Coordinates
version=1
nRows=31
nColumns=38
inDegrees=no

Units are S.I. units (second, meters, Newtons, ...)
If the header above contains a line with 'inDegrees', this indicates whether rotational values are in degrees (yes) or radians (no).

endheader
time	pelvis_tilt	pelvis_list	pelvis_rotation	pelvis_tx	pelvis_ty	pelvis_tz	hip_flexion_r	hip_adduction_r	hip_rotation_r	knee_angle_r	ankle_angle_r	subtalar_angle_r	mtp_angle_r	hip_flexion_l	hip_adduction_l	hip_rotation_l	knee_angle_l	ankle_angle_l	subtalar_angle_l	mtp_angle_l	lumbar_extension	lumbar_bending	lumbar_rotation	arm_flex_r	arm_add_r	arm_rot_r	elbow_flex_r	pro_sup_r	wrist_flex_r	wrist_dev_r	arm_flex_l	arm_add_l	arm_rot_l	elbow_flex_l	pro_sup_l	wrist_flex_l	wrist_dev_l
1.57	-2.82136	1.35157	1.35356	0.74697	-0.0581723	1.01186	0.495903	0.0213325	-0.176639	0.0112987	-0.314926	0	0	-0.107878	-0.102825	-0.247742	0.325898	-0.138754	0	0	0.0713466	0.0987377	-0.236502	-0.00468125	-0.211606	0.530747	0.211532	1.44315	0	0	-0.124143	-0.337104	0.0808048	1.16635	1.42614	0	0
1.58	-2.78919	1.34899	1.32386	0.746316	-0.0724478	1.01192	0.493622	0.0291174	-0.173655	0.0246367	-0.327291	0	0	-0.10314	-0.113852	-0.235782	0.357046	-0.152398	0	0	0.0747079	0.110361	-0.232079	-0.00437457	-0.214467	0.523832	0.214911	1.44194	0	0	-0.119946	-0.327856	0.0918204	1.13808	1.42531	0	0
1.59	-2.75259	1.345	1.28808	0.745578	-0.0866264	1.01234	0.493435	0.0383512	-0.171638	0.0460001	-0.32255	0	0	-0.0949016	-0.126119	-0.222863	0.394063	-0.168198	0	0	0.0788027	0.123974	-0.225704	-0.00404259	-0.21798	0.51558	0.219026	1.44087	0	0	-0.114797	-0.31746	0.104125	1.10573	1.42383	0	0
1.6	-2.71603	1.33963	1.25075	0.744811	-0.10064	1.01306	0.495364	0.0483952	-0.163609	0.0745061	-0.304808	0	0	-0.0824835	-0.138629	-0.208974	0.437486	-0.188117	0	0	0.0835638	0.138804	-0.218067	-0.00345718	-0.222069	0.504601	0.224365	1.44037	0	0	-0.109017	-0.306524	0.117992	1.06972	1.4205	0	0
1.61	-2.68288	1.33407	1.21558	0.74396	-0.114428	1.01399	0.497415	0.0590678	-0.147498	0.105563	-0.283672	0	0	-0.0666935	-0.150402	-0.193719	0.486349	-0.210537	0	0	0.0877581	0.153301	-0.210294	-0.00149682	-0.226075	0.49443	0.229761	1.44104	0	0	-0.103456	-0.29539	0.131394	1.03168	1.41492	0	0
1.62	-2.65737	1.32849	1.18775	0.742999	-0.127945	1.01491	0.499734	0.0694514	-0.129855	0.135844	-0.261465	0	0	-0.0474482	-0.160605	-0.176124	0.539075	-0.235141	0	0	0.0919323	0.165702	-0.203418	0.00166846	-0.229467	0.486195	0.235242	1.44347	0	0	-0.0990598	-0.285274	0.144171	0.993691	1.40656	0	0
1.63	-2.63996	1.32336	1.16941	0.742001	-0.141185	1.01562	0.501608	0.0783156	-0.119267	0.162645	-0.239874	0	0	-0.0252047	-0.169119	-0.15617	0.594335	-0.259826	0	0	0.0965099	0.174981	-0.199121	0.00599755	-0.231703	0.480777	0.240334	1.44811	0	0	-0.0962475	-0.277421	0.15709	0.957226	1.39507	0	0
1.64	-2.62408	1.32015	1.15597	0.741043	-0.154273	1.01621	0.499228	0.0852611	-0.119243	0.182714	-0.219247	0	0	-0.00193593	-0.176989	-0.133922	0.651416	-0.284325	0	0	0.0999841	0.181507	-0.199001	0.0114892	-0.232511	0.477987	0.245153	1.45457	0	0	-0.0945805	-0.272612	0.171365	0.922679	1.37966	0	0
1.65	-2.60664	1.31914	1.14455	0.740189	-0.167229	1.01679	0.491193	0.0902751	-0.127301	0.19595	-0.19813	0	0	0.0219119	-0.18413	-0.108375	0.71	-0.310521	0	0	0.101418	0.185725	-0.201851	0.0174764	-0.232103	0.475815	0.250288	1.46265	0	0	-0.0924784	-0.27184	0.191357	0.890015	1.35825	0	0
1.66	-2.58867	1.31953	1.13541	0.739558	-0.179905	1.01738	0.479108	0.0935389	-0.137025	0.203722	-0.180621	0	0	0.0471152	-0.190125	-0.0809688	0.769545	-0.336733	0	0	0.101155	0.18813	-0.20588	0.0237393	-0.231083	0.472249	0.255993	1.46816	0	0	-0.0889875	-0.273427	0.215735	0.858648	1.33565	0	0
1.67	-2.57271	1.32046	1.13012	0.739181	-0.192279	1.018	0.465079	0.0955483	-0.145227	0.207456	-0.164302	0	0	0.0739758	-0.194262	-0.0527529	0.82801	-0.365522	0	0	0.100134	0.188617	-0.209558	0.0294541	-0.22995	0.465911	0.263002	1.47265	0	0	-0.0833688	-0.277487	0.24693	0.828396	1.30938	0	0
1.68	-2.55873	1.32219	1.12758	0.738995	-0.204444	1.0188	0.449976	0.0967325	-0.152782	0.209146	-0.149959	0	0	0.100728	-0.196198	-0.0247752	0.88337	-0.389301	0	0	0.0981697	0.187636	-0.211985	0.034331	-0.228889	0.456	0.271566	1.4767	0	0	-0.0755853	-0.282803	0.284158	0.798199	1.27976	0	0
1.69	-2.54702	1.3249	1.12685	0.738861	-0.216432	1.01992	0.434586	0.0974114	-0.160865	0.210636	-0.137337	0	0	0.12647	-0.195876	0.00142958	0.934727	-0.398861	0	0	0.0948825	0.185358	-0.212014	0.0383503	-0.227865	0.44233	0.281602	1.48132	0	0	-0.0657734	-0.288579	0.326033	0.767604	1.2479	0	0
1.7	-2.53854	1.32859	1.12726	0.738627	-0.228255	1.0214	0.419092	0.0978838	-0.168154	0.212087	-0.127399	0	0	0.150319	-0.193501	0.0236886	0.980931	-0.392318	0	0	0.0902138	0.181847	-0.209066	0.0421196	-0.226804	0.425729	0.292652	1.48938	0	0	-0.0550455	-0.294432	0.370569	0.737238	1.21466	0	0
1.71	-2.53476	1.33232	1.1301	0.738236	-0.240085	1.02313	0.403956	0.0981856	-0.173718	0.212768	-0.120417	0	0	0.172607	-0.189925	0.0407714	1.02159	-0.372421	0	0	0.086158	0.177218	-0.2044	0.045853	-0.225582	0.409132	0.303927	1.4968	0	0	-0.0464324	-0.2984	0.409713	0.707265	1.19016	0	0
1.72	-2.53339	1.33645	1.1336	0.737758	-0.251927	1.0251	0.387969	0.0985109	-0.176627	0.212358	-0.114874	0	0	0.192993	-0.185465	0.0536428	1.05756	-0.342056	0	0	0.082152	0.171959	-0.198499	0.0490669	-0.224533	0.391787	0.316296	1.50502	0	0	-0.0392805	-0.301777	0.447206	0.678386	1.16846	0	0
1.73	-2.5322	1.34164	1.13603	0.737294	-0.263776	1.02729	0.369976	0.0990216	-0.176237	0.210946	-0.110309	0	0	0.211234	-0.180369	0.0631416	1.08985	-0.307159	0	0	0.0777745	0.166155	-0.193025	0.0528294	-0.224196	0.380161	0.329114	1.51245	0	0	-0.0357968	-0.30292	0.474454	0.651145	1.15602	0	0
1.74	-2.53481	1.34697	1.14004	0.736791	-0.275641	1.02957	0.3516	0.0993705	-0.17418	0.208981	-0.106379	0	0	0.228501	-0.174591	0.0678639	1.11804	-0.270256	0	0	0.0741997	0.159636	-0.186626	0.0563008	-0.224637	0.371782	0.342913	1.52084	0	0	-0.0353378	-0.30332	0.496288	0.625854	1.14787	0	0
1.75	-2.54747	1.35108	1.15084	0.736111	-0.287533	1.03177	0.335445	0.0988969	-0.17308	0.207227	-0.103242	0	0	0.246466	-0.168144	0.0663622	1.14144	-0.233214	0	0	0.0732248	0.151874	-0.178221	0.0588426	-0.225092	0.36344	0.357423	1.5299	0	0	-0.0381027	-0.303865	0.514131	0.603465	1.14049	0	0
1.76	-2.56066	1.35611	1.16236	0.735525	-0.299393	1.03411	0.317804	0.0978394	-0.171539	0.204246	-0.101392	0	0	0.263032	-0.161626	0.0628875	1.15955	-0.202026	0	0	0.0717103	0.143614	-0.171801	0.0624023	-0.225736	0.359528	0.371815	1.53998	0	0	-0.0438981	-0.304246	0.525108	0.583693	1.13603	0	0
1.77	-2.57438	1.36185	1.17462	0.735047	-0.311185	1.03655	0.299057	0.0962668	-0.169459	0.199912	-0.101073	0	0	0.278369	-0.155161	0.0581319	1.17204	-0.17572	0	0	0.069823	0.134961	-0.167418	0.0663613	-0.226868	0.357695	0.387591	1.54926	0	0	-0.0524922	-0.30464	0.52965	0.566575	1.13279	0	0
1.78	-2.58848	1.36799	1.1871	0.734662	-0.322923	1.03907	0.279516	0.0943461	-0.16814	0.194325	-0.102192	0	0	0.292489	-0.149244	0.0519343	1.17836	-0.151854	0	0	0.0676479	0.12642	-0.163728	0.0699013	-0.228123	0.354784	0.404589	1.55723	0	0	-0.062807	-0.305069	0.529874	0.55184	1.12938	0	0
1.79	-2.60634	1.37308	1.20317	0.73434	-0.334524	1.04149	0.26144	0.0918095	-0.169247	0.188648	-0.104573	0	0	0.307394	-0.143906	0.0439792	1.17864	-0.132404	0	0	0.0669601	0.117898	-0.160623	0.0731626	-0.229711	0.352977	0.422177	1.56581	0	0	-0.0746452	-0.305277	0.526242	0.538808	1.12558	0	0
1.8	-2.62634	1.37671	1.22159	0.7341	-0.345944	1.04378	0.245106	0.0889296	-0.173091	0.18292	-0.108141	0	0	0.323563	-0.139488	0.0350614	1.17353	-0.116801	0	0	0.0678915	0.109928	-0.158378	0.0761131	-0.231202	0.351109	0.439841	1.5708	0	0	-0.0876175	-0.304778	0.518648	0.526971	1.1205	0	0
1.81	-2.6373	1.38225	1.23116	0.733971	-0.357247	1.04611	0.225813	0.0868202	-0.177158	0.176453	-0.114406	0	0	0.336382	-0.136995	0.0255983	1.16355	-0.101386	0	0	0.049534	0.109161	-0.125217	0.0473291	-0.250602	0.304171	0.51254	1.5708	0	0	-0.0743492	-0.300515	0.528667	0.511128	1.12232	0	0
1.82	-2.64824	1.38638	1.24036	0.733881	-0.36859	1.04845	0.207651	0.0851372	-0.179641	0.169853	-0.119807	0	0	0.349272	-0.135504	0.0162464	1.14752	-0.0927432	0	0	0.0457766	0.10404	-0.117184	0.0437399	-0.255754	0.292924	0.541437	1.5708	0	0	-0.0825415	-0.299232	0.522325	0.500626	1.11417	0	0
1.83	-2.65871	1.39	1.24815	0.733781	-0.379814	1.05066	0.190289	0.0837781	-0.182455	0.163446	-0.126817	0	0	0.361262	-0.134935	0.00590893	1.12624	-0.0851442	0	0	0.0425565	0.0994482	-0.109346	0.0411643	-0.261135	0.285026	0.569017	1.5708	0	0	-0.0915873	-0.29736	0.51296	0.491084	1.10393	0	0
1.84	-2.66901	1.39278	1.25545	0.733698	-0.390907	1.05269	0.174183	0.0826062	-0.185616	0.157706	-0.134624	0	0	0.372936	-0.135131	-0.00522365	1.10003	-0.0791467	0	0	0.0400744	0.0953648	-0.101666	0.0387614	-0.266192	0.277088	0.59571	1.5708	0	0	-0.100721	-0.295087	0.501931	0.482363	1.09217	0	0
1.85	-2.67905	1.39469	1.26251	0.733675	-0.402007	1.05453	0.159148	0.0817184	-0.189197	0.152374	-0.143281	0	0	0.384337	-0.13582	-0.0170017	1.06933	-0.0750251	0	0	0.0386284	0.0917866	-0.0944087	0.0360993	-0.270712	0.268314	0.621314	1.5708	0	0	-0.109895	-0.292671	0.490709	0.474104	1.08044	0	0
1.86	-2.69159	1.39603	1.27115	0.733656	-0.413131	1.05614	0.145012	0.0806445	-0.191671	0.147363	-0.151852	0	0	0.394347	-0.136823	-0.0308204	1.03299	-0.0722499	0	0	0.0379629	0.0881052	-0.0871238	0.034064	-0.275166	0.260806	0.645551	1.5708	0	0	-0.119845	-0.290673	0.479666	0.467661	1.06891	0	0
1.87	-2.70646	1.39722	1.28129	0.73364	-0.424241	1.05749	0.131348	0.0792418	-0.193088	0.142755	-0.159344	0	0	0.402863	-0.137977	-0.0470197	0.991117	-0.071023	0	0	0.0373759	0.0840904	-0.0796424	0.0326461	-0.279541	0.254273	0.668695	1.5708	0	0	-0.130402	-0.288974	0.467844	0.463295	1.05697	0	0
